<?xml version="1.0" encoding="UTF-8"?>
<svg width="90px" height="24px" viewBox="0 0 90 24" version="1.1" xmlns="http://www.w3.org/2000/svg" xmlns:xlink="http://www.w3.org/1999/xlink">
    <!-- Generator: Sketch 45.1 (43504) - http://www.bohemiancoding.com/sketch -->
    <title>brand</title>
    <desc>Created with Sketch.</desc>
    <defs>
        <polygon id="path-1" points="-2.63487298e-16 17.299468 -2.63487298e-16 0.0547979695 24.1522883 0.0547979695 24.1522883 17.299468 -4.79067815e-16 17.299468"></polygon>
    </defs>
    <g id="::-Our-Culture" stroke="none" stroke-width="1" fill="none" fill-rule="evenodd">
        <g id="Desktop:-Our-Culture-Copy" transform="translate(-391.000000, -16.000000)">
            <g id="header">
                <g id="brand" transform="translate(391.000000, 16.000000)">
                    <g id="movile-brand">
                        <g id="movile">
                            <path d="M86.5192221,13.8782376 L76.4378566,13.8782376 L76.4378566,12.7101563 C76.4378566,11.4047756 77.8381324,10.3054051 79.5178428,10.3054051 L83.5783945,10.3054051 C85.2592221,10.3054051 86.5192221,11.4047756 86.5192221,12.7101563 L86.5192221,13.8782376 Z M83.5783945,6.87023756 L79.5178428,6.87023756 C75.9476359,6.87023756 73.0775669,9.41228832 73.0775669,12.7101563 L73.0775669,18.1375675 C73.0775669,21.2294254 75.8072359,23.7712325 79.3079255,23.9774863 L83.5088772,23.9774863 C86.8691669,23.9774863 89.5990841,20.9544609 89.5990841,19.0993949 C89.5990841,18.8249178 89.3891669,18.6185421 89.1086152,18.6185421 L86.6581324,18.6185421 C86.3081876,18.6185421 86.1691531,19.0993949 86.1691531,19.0993949 C85.468891,20.3363086 84.4883255,20.5423188 83.5783945,20.5423188 L79.5178428,20.5423188 C77.8381324,20.5423188 76.4378566,19.4431919 76.4378566,18.1375675 L76.4378566,16.763598 L89.3891669,16.763598 C89.6684772,16.763598 89.8795117,16.5577096 89.8795117,16.2825015 L89.8795117,12.7101563 C89.8795117,9.41228832 87.0790841,6.87023756 83.5783945,6.87023756 L83.5783945,6.87023756 Z" id="Fill-1" fill="#010202"></path>
                            <g id="Group-5" transform="translate(0.000000, 6.678213)">
                                <mask id="mask-2" fill="white">
                                    <use xlink:href="#path-1"></use>
                                </mask>
                                <g id="Clip-4"></g>
                                <path d="M24.1522883,6.03189442 C24.1522883,2.7340264 21.2809779,0.0547979695 17.7106469,0.0547979695 L17.0106331,0.0547979695 C15.4005641,0.0547979695 13.4404262,0.741782741 12.110909,2.11587411 C10.6398745,0.673072081 8.89077103,0.0547979695 7.20994345,0.0547979695 L6.44028828,0.0547979695 C2.87008138,0.0547979695 -0.000111724138,2.7340264 -0.000111724138,6.03189442 L-0.000111724138,16.8186152 C-0.000111724138,17.0929706 0.209805517,17.299468 0.489115862,17.299468 L3.14939172,17.299468 C3.42994345,17.299468 3.63973655,17.0929706 3.63973655,16.8186152 L3.63973655,6.10060508 C3.63973655,4.79510254 4.89973655,3.48984365 6.44028828,3.48984365 L7.20994345,3.48984365 C9.10056414,3.48984365 10.3605641,4.45179289 10.3605641,6.10060508 L10.3605641,16.8186152 C10.4300814,17.2305137 10.6398745,17.299468 10.850909,17.299468 L13.4404262,17.299468 C13.7904952,17.299468 13.930771,17.0929706 13.930771,16.8186152 L13.930771,6.10060508 C13.930771,4.45179289 15.190771,3.48984365 17.0106331,3.48984365 L17.7106469,3.48984365 C19.4611159,3.48984365 20.5113228,4.79510254 20.5113228,6.10060508 L20.5113228,16.8186152 C20.5113228,17.0929706 20.7209917,17.299468 21.0016676,17.299468 L23.6619434,17.299468 C23.9412538,17.299468 24.1522883,17.0929706 24.1522883,16.8186152 L24.1522883,6.03189442" id="Fill-3" fill="#010202" mask="url(#mask-2)"></path>
                            </g>
                            <path d="M53.0640497,23.9776569 C53.6239117,23.9776569 53.6946703,23.6341036 53.7641876,23.4968041 L59.8542703,7.35126091 C59.9946703,7.07641827 59.7848772,6.87016447 59.5055669,6.87016447 L56.6342566,6.87016447 C56.3549462,6.87016447 56.2840634,7.07641827 56.1439117,7.35126091 L51.8040497,19.3054538 L47.5335807,7.35126091 C47.3933048,7.07641827 47.3239117,6.87016447 47.04336,6.87016447 L44.1036497,6.87016447 C43.8232221,6.87016447 43.6133048,7.07641827 43.7537048,7.35126091 L49.8439117,23.4968041 C49.9840634,23.7712812 50.1939807,23.9776569 50.4745324,23.9776569 L53.0640497,23.9776569" id="Fill-6" fill="#010202"></path>
                            <path d="M70.3974166,23.9776569 C70.6767269,23.9776569 70.8863959,23.7712812 70.8863959,23.4968041 L70.8863959,0.480804061 C70.8863959,0.206083249 70.6767269,7.30964467e-05 70.3974166,7.30964467e-05 L67.876051,7.30964467e-05 C67.5967407,7.30964467e-05 67.3857062,0.206083249 67.3857062,0.480804061 L67.3857062,23.4968041 C67.3857062,23.7712812 67.5967407,23.9776569 67.876051,23.9776569 L70.3974166,23.9776569" id="Fill-8" fill="#010202"></path>
                            <path d="M64.4958993,23.9776569 C64.776451,23.9776569 64.98612,23.7712812 64.98612,23.4968041 L64.98612,7.35126091 C64.98612,7.07641827 64.776451,6.87016447 64.4958993,6.87016447 L61.9757752,6.87016447 C61.6952234,6.87016447 61.4855545,7.07641827 61.4855545,7.35126091 L61.4855545,23.4968041 C61.4855545,23.7712812 61.6952234,23.9776569 61.9757752,23.9776569 L64.4958993,23.9776569" id="Fill-10" fill="#010202"></path>
                            <path d="M64.4958993,3.43516751 C64.776451,3.43516751 64.98612,3.22903553 64.98612,2.95419289 L64.98612,0.480852792 C64.98612,0.20613198 64.776451,0 64.4958993,0 L61.9757752,0 C61.6952234,0 61.4855545,0.20613198 61.4855545,0.480852792 L61.4855545,2.95419289 C61.4855545,3.22903553 61.6952234,3.43516751 61.9757752,3.43516751 L64.4958993,3.43516751" id="Fill-12" fill="#010202"></path>
                            <path d="M40.1127393,18.2063269 C40.1127393,19.5117076 38.8527393,20.5423675 37.1036359,20.5423675 L32.5527393,20.5423675 C30.9426703,20.5423675 29.6825462,19.5117076 29.6825462,18.2063269 L29.6825462,12.7100832 C29.6825462,11.4047025 30.9426703,10.305332 32.5527393,10.305332 L37.1036359,10.305332 C38.8527393,10.305332 40.1127393,11.4047025 40.1127393,12.7100832 L40.1127393,18.2063269 Z M37.1036359,6.87016447 L32.5527393,6.87016447 C29.0519255,6.87016447 26.1818566,9.41221523 26.1818566,12.7100832 L26.1818566,18.1376162 C26.1818566,21.2293523 29.1215669,23.9776569 32.5527393,23.9776569 L37.1036359,23.9776569 C40.6726014,23.9776569 43.6133048,21.2293523 43.6133048,18.1376162 L43.6133048,12.7100832 C43.6133048,9.41221523 40.6726014,6.87016447 37.1036359,6.87016447 L37.1036359,6.87016447 Z" id="Fill-14" fill="#EB008B"></path>
                        </g>
                    </g>
                </g>
            </g>
        </g>
    </g>
</svg>